<?xml version="1.0" standalone="no"?>
<!DOCTYPE svg PUBLIC "-//W3C//DTD SVG 20010904//EN"
 "http://www.w3.org/TR/2001/REC-SVG-20010904/DTD/svg10.dtd">
<svg version="1.0" xmlns="http://www.w3.org/2000/svg"
 width="609.000000pt" height="609.000000pt" viewBox="0 0 609.000000 609.000000"
 preserveAspectRatio="xMidYMid meet">
<metadata>
Created by potrace 1.14, written by Peter Selinger 2001-2017
</metadata>
<g transform="translate(0.000000,609.000000) scale(0.100000,-0.100000)"
fill="#000000" stroke="none">
<path d="M3426 6083 c-2 -2 -32 -5 -67 -8 -63 -5 -193 -21 -239 -30 -13 -3
-42 -7 -64 -11 -22 -3 -43 -7 -47 -9 -3 -2 -48 -14 -100 -25 -52 -12 -101 -23
-109 -25 -46 -11 -296 -98 -305 -106 -5 -5 -15 -9 -22 -9 -8 0 -74 -29 -148
-65 -75 -36 -139 -65 -144 -65 -5 0 -11 -4 -13 -8 -1 -5 -28 -22 -58 -38 -61
-33 -99 -55 -114 -67 -6 -4 -59 -39 -118 -78 -59 -39 -121 -84 -139 -100 -18
-16 -35 -29 -39 -29 -3 0 -19 -12 -36 -27 -17 -16 -53 -46 -79 -68 -107 -88
-245 -223 -341 -331 -33 -37 -72 -82 -89 -100 -16 -19 -38 -44 -47 -57 -10
-12 -29 -35 -43 -52 -14 -16 -25 -36 -25 -42 0 -7 -4 -13 -9 -13 -5 0 -24 -24
-42 -52 -18 -29 -36 -55 -39 -58 -11 -10 -90 -141 -90 -150 0 -4 -4 -10 -9
-12 -5 -1 -11 -10 -13 -18 -2 -8 -5 -17 -8 -20 -7 -6 -123 -235 -120 -235 2 0
-6 -20 -17 -45 -11 -25 -28 -67 -37 -95 -10 -27 -21 -57 -24 -65 -3 -8 -6 -18
-7 -22 -2 -5 -3 -9 -5 -10 -1 -2 -3 -10 -5 -18 -1 -8 -12 -46 -24 -84 -11 -37
-23 -78 -25 -90 -2 -11 -9 -39 -14 -61 -6 -22 -13 -56 -16 -75 -3 -19 -8 -45
-10 -57 -3 -11 -7 -43 -11 -70 -4 -26 -9 -59 -11 -73 -25 -144 -24 -651 1
-775 2 -11 7 -42 10 -69 3 -27 10 -57 15 -66 5 -10 7 -20 4 -23 -8 -8 51 -250
82 -337 3 -8 5 -15 4 -15 -4 0 67 -180 91 -232 18 -38 33 -71 33 -74 2 -10 71
-144 77 -149 3 -3 12 -20 20 -38 8 -17 17 -32 21 -32 5 0 8 -5 8 -11 0 -13
140 -223 151 -227 5 -2 9 -8 9 -14 0 -8 38 -58 95 -124 6 -7 28 -34 50 -60 52
-63 264 -275 340 -341 49 -43 172 -141 256 -206 45 -35 79 -57 88 -57 5 0 11
-4 13 -8 5 -13 111 -82 125 -82 6 0 13 -3 15 -8 9 -21 403 -223 463 -237 6 -2
47 -17 93 -35 46 -17 89 -33 95 -34 7 -1 18 -5 25 -9 6 -5 12 -6 12 -3 0 3 12
1 28 -5 15 -6 34 -12 42 -14 8 -2 42 -11 75 -20 127 -35 228 -55 360 -70 22
-3 56 -7 75 -10 213 -30 709 -24 915 11 22 4 56 8 75 9 19 1 46 5 60 9 14 3
41 8 60 10 19 3 35 5 35 6 0 1 11 4 25 6 14 3 63 14 110 25 47 12 92 22 100
23 9 1 20 5 25 8 8 4 103 29 125 33 20 3 349 113 407 136 131 52 267 127 360
199 l22 17 -25 46 c-13 25 -24 53 -24 61 0 8 -3 16 -7 18 -5 2 -18 23 -30 48
-12 25 -86 176 -164 335 -77 160 -175 360 -217 445 -42 85 -77 157 -77 160 -2
11 -128 260 -132 260 -7 0 -68 -44 -75 -55 -5 -7 -8 -7 -8 0 0 6 -3 6 -8 -1
-8 -12 -124 -68 -162 -79 -14 -3 -39 -13 -55 -20 -17 -8 -46 -17 -65 -20 -18
-3 -37 -8 -42 -11 -21 -13 -218 -60 -218 -52 0 5 -6 6 -12 1 -29 -17 -133 -27
-293 -27 -118 0 -181 4 -285 19 -64 9 -236 68 -325 113 -257 128 -496 362
-625 613 -40 78 -97 218 -104 254 -3 17 -12 57 -20 90 -24 99 -31 172 -31 335
0 151 8 251 25 311 5 16 9 32 9 34 1 3 1 6 2 8 1 5 8 34 13 57 9 41 84 229 96
240 3 3 16 27 29 53 42 84 140 209 245 312 99 99 121 117 214 182 55 37 253
137 297 148 17 5 35 10 40 11 45 15 117 33 150 38 22 3 54 8 70 12 106 21 423
5 595 -31 35 -7 68 -11 72 -9 4 3 8 1 8 -3 0 -5 8 -9 18 -10 24 -2 125 -36
187 -64 28 -12 56 -23 63 -25 8 -1 21 -8 30 -16 10 -7 38 -24 64 -36 25 -13
55 -32 67 -43 11 -10 24 -19 30 -19 9 0 224 423 221 436 -1 4 2 10 7 13 7 5
185 356 188 371 1 3 60 123 133 266 124 248 130 263 113 278 -10 9 -22 16 -28
16 -6 0 -13 4 -15 8 -1 5 -25 23 -53 42 -27 18 -52 36 -55 39 -11 12 -210 121
-210 115 0 -2 -17 4 -37 14 -21 11 -81 34 -133 52 -52 18 -102 35 -110 38 -8
3 -19 7 -25 7 -5 1 -17 5 -25 8 -21 8 -84 27 -106 32 -10 2 -44 11 -74 20 -96
29 -222 57 -330 75 -41 7 -84 14 -95 16 -54 10 -168 23 -260 30 -79 6 -594 12
-599 7z"/>
</g>
</svg>
